<svg width="50" height="50" viewBox="0 0 50 50" fill="none" xmlns="http://www.w3.org/2000/svg">
<g clip-path="url(#clip0_32_101)">
<path d="M22.5195 0.156255C21.6406 0.47852 21.0547 1.19141 20.8887 2.13868L20.791 2.69532L19.9805 2.95899C17.7344 3.69141 15.6641 5.01954 13.916 6.84571C12.1289 8.73047 10.8984 11.0449 10.3418 13.5938C10.1758 14.375 9.9707 16.2793 9.96093 17.1484C9.96093 17.4512 9.96093 17.4609 9.37499 17.5C8.53515 17.5586 8.16406 17.998 8.4082 18.6426C8.58398 19.0918 8.74023 19.1309 10.2344 19.1406H11.6211V20.5762C11.6211 22.4902 11.7676 24.4727 12.0019 25.6738C12.3926 27.6465 13.5059 30.3906 14.5508 31.9336L14.9414 32.5098L14.541 34.1016C14.1211 35.7813 14.1113 36.0645 14.4629 36.5039C14.707 36.8164 14.7656 36.7969 13.1348 37.1582C10.6445 37.7246 7.7246 38.8672 4.09179 40.6934C1.38671 42.0508 0.81054 42.5488 0.27343 44.0039C0.0781179 44.5215 0.0488211 44.7949 0.0195242 46.9043C-0.0195383 49.4141 0.0195242 49.6973 0.449212 49.8926C0.791009 50.0488 49.1992 50.0488 49.541 49.8926C49.9512 49.707 50 49.4434 50 47.1875C50 44.5117 49.873 43.9648 48.9453 42.7539C48.418 42.0508 47.6953 41.5723 45.6055 40.5371C42.1875 38.8379 39.2578 37.7051 36.8652 37.1582C35.2148 36.7871 35.293 36.8359 35.5957 36.4258C35.7324 36.25 35.8398 35.9961 35.8398 35.8691C35.8398 35.7422 35.6641 34.9316 35.4492 34.0723L35.0586 32.5098L35.4492 31.9336C36.4941 30.3906 37.6074 27.6465 37.998 25.6738C38.2324 24.4727 38.3789 22.4902 38.3789 20.5762V19.1406H39.7754C41.2598 19.1309 41.416 19.0918 41.5918 18.6426C41.8359 17.998 41.4648 17.5586 40.625 17.5C40.0391 17.4609 40.0391 17.4512 40.0391 17.1484C40.0293 16.2793 39.8242 14.375 39.6582 13.5938C39.1016 11.0449 37.8711 8.73047 36.084 6.84571C34.3359 5.01954 32.2656 3.69141 30.0195 2.95899L29.209 2.69532L29.1113 2.13868C28.9453 1.17188 28.3496 0.468755 27.4512 0.146489C26.8652 -0.058589 23.0859 -0.0488234 22.5195 0.156255ZM27.041 1.80665C27.4805 2.03125 27.5391 2.36329 27.5391 4.7461C27.5391 5.9375 27.5684 6.99219 27.5976 7.08008C27.6953 7.32422 28.2031 7.53907 28.5156 7.47071C29.0625 7.35352 29.1504 7.13868 29.1894 5.75196C29.1992 5.0586 29.248 4.49219 29.2969 4.49219C29.3359 4.49219 29.7363 4.63868 30.1855 4.82422C30.7715 5.04883 31.0156 5.20508 31.0351 5.33204C31.0449 5.43946 30.8203 6.68946 30.5273 8.11524C30.0976 10.1758 30.0098 10.7813 30.0781 11.0352C30.1953 11.4453 30.4297 11.6113 30.8691 11.6211C31.1621 11.6211 35.9766 10.6641 36.543 10.4883C36.6699 10.4492 36.7871 10.5957 37.041 11.1035C37.7832 12.5684 38.2129 14.3359 38.3301 16.377L38.3887 17.4805H25H11.6113L11.6699 16.377C11.748 14.9512 11.9629 13.7402 12.3242 12.6465C12.5586 11.9434 13.0957 10.7227 13.2324 10.5664C13.2422 10.5469 14.5019 10.7813 16.0156 11.084C17.5391 11.377 18.9648 11.6211 19.1894 11.6211C19.6484 11.6211 20.1172 11.3281 20.1172 11.0547C20.1172 10.9668 19.8535 9.61914 19.5312 8.06641C19.209 6.50391 18.9746 5.20508 19.0137 5.16602C19.1211 5.07813 20.5664 4.49219 20.6836 4.49219C20.7422 4.49219 20.791 5.0293 20.8105 5.75196C20.8496 7.13868 20.9375 7.35352 21.4844 7.47071C21.7969 7.53907 22.3047 7.32422 22.4023 7.08008C22.4316 6.99219 22.4609 5.92774 22.4609 4.72657C22.4609 2.35352 22.5293 1.9336 22.9687 1.75782C23.0957 1.70899 23.9941 1.66993 24.9805 1.66993C26.3672 1.66016 26.8262 1.68946 27.041 1.80665ZM17.7148 7.91993C17.9101 8.89649 18.0566 9.70704 18.0469 9.7168C18.0078 9.75586 14.3652 9.02344 14.3066 8.97461C14.1797 8.83789 17.0019 6.15235 17.2754 6.15235C17.3144 6.15235 17.5098 6.95313 17.7148 7.91993ZM33.6816 6.88477C34.5215 7.58789 35.7715 8.88672 35.6934 8.97461C35.6348 9.02344 31.9922 9.75586 31.9531 9.7168C31.8945 9.65821 32.6562 6.15235 32.7246 6.15235C32.7734 6.15235 33.2031 6.48438 33.6816 6.88477ZM36.6211 21.5039C36.6211 24.0039 36.5137 25.0488 36.1328 26.5137C35.791 27.8027 35.1855 29.2285 34.4922 30.3711C33.8769 31.377 33.5937 31.7383 32.373 33.1055C30.8398 34.8242 28.5156 36.1523 26.3965 36.5234C25.4492 36.6895 23.7012 36.6016 22.7539 36.3281C21.7676 36.0547 20.2246 35.2832 19.3848 34.6484C17.2754 33.0566 15.3613 30.5957 14.4629 28.291C13.5937 26.0645 13.3789 24.7168 13.3789 21.5039V19.1406H25H36.6211V21.5039ZM18.6133 36.2305C19.9512 37.1582 21.5625 37.8516 23.0078 38.125C23.3984 38.1934 23.6719 38.3008 23.6621 38.3594C23.623 38.5352 21.582 43.1055 21.5039 43.1836C21.4648 43.2227 20.3809 41.7969 19.0918 40.0195C17.8027 38.2422 16.5625 36.5332 16.3281 36.2207L15.918 35.6543L16.0742 34.9219L16.2402 34.1895L17.0605 34.9609C17.5098 35.3809 18.2129 35.957 18.6133 36.2305ZM33.6719 36.2207C33.4375 36.5332 32.1973 38.2422 30.9082 40.0195C29.6191 41.7969 28.5351 43.2227 28.4961 43.1836C28.418 43.1055 26.3769 38.5352 26.3379 38.3594C26.3281 38.3008 26.6016 38.1934 26.9922 38.125C29.0918 37.7246 31.1719 36.6113 32.9297 34.9609L33.7402 34.1992L33.916 34.9219L34.0918 35.6543L33.6719 36.2207ZM35.625 38.5352C38.3105 39.082 41.6797 40.3711 45.5371 42.3047C47.0801 43.0762 47.7148 43.584 48.0566 44.3652C48.2617 44.8242 48.291 45.0391 48.3203 46.6016L48.3594 48.3398H39.1211H29.8828L29.834 48.125C29.6777 47.4414 29.2969 45.4492 29.2969 45.2832C29.2969 45.0879 34.1699 38.291 34.3164 38.2813C34.3652 38.2813 34.9512 38.3984 35.625 38.5352ZM18.2812 41.748C19.6094 43.5742 20.6934 45.166 20.7031 45.2734C20.7031 45.4492 20.3418 47.3828 20.166 48.1152L20.1172 48.3398H10.8789H1.64062L1.67968 46.6016C1.70898 44.9512 1.71874 44.8535 1.97265 44.3359C2.11913 44.0332 2.36327 43.6719 2.51952 43.5254C3.04687 43.0176 6.8457 41.123 9.30663 40.1465C11.5918 39.2285 14.7754 38.3496 15.5664 38.4082C15.8301 38.4277 16.1035 38.7695 18.2812 41.748ZM26.9531 43.916L27.0508 44.1406H25.0488C23.9453 44.1406 23.0469 44.1211 23.0469 44.1016C23.0469 44.043 24.7949 40.0488 24.9219 39.8047C25 39.6582 25.1758 39.9707 25.9375 41.6602C26.4453 42.7832 26.8945 43.7988 26.9531 43.916ZM27.6367 45.8398C27.6367 45.9277 28.0371 47.998 28.0859 48.1641C28.1348 48.3301 27.9394 48.3398 25.0098 48.3398C23.2812 48.3398 21.875 48.3203 21.875 48.3008C21.875 48.2813 21.9824 47.7344 22.1191 47.0703C22.2559 46.4063 22.3633 45.8594 22.3633 45.8398C22.3633 45.8203 23.5547 45.8008 25 45.8008C26.4551 45.8008 27.6367 45.8203 27.6367 45.8398Z" fill="white"/>
</g>
<defs>
<clipPath id="clip0_32_101">
<rect width="50" height="50" fill="white"/>
</clipPath>
</defs>
</svg>
