<svg width="48" height="48" viewBox="0 0 48 48" fill="none" xmlns="http://www.w3.org/2000/svg">
<path d="M10.1328 6.34381C2.30078 10.8653 0.611328 11.8809 0.552734 12.086C0.464844 12.4083 0.464844 35.5919 0.552734 35.9141C0.611328 36.1192 2.29102 37.1251 10.0352 41.6075C15.2207 44.5958 19.5664 47.0762 19.6934 47.1055C19.8203 47.1446 20.0547 47.1055 20.2305 47.0274C20.3965 46.9395 23.0918 45.3965 26.2266 43.5899L31.9199 40.2989L33.1602 41.5977C33.8535 42.3106 35.2793 43.8047 36.3438 44.918C37.418 46.0313 38.3652 46.9688 38.4531 46.9981C38.541 47.0274 38.6875 47.0274 38.7754 46.9883C39 46.9102 45.2402 40.3672 45.7578 39.6739C46.3633 38.8633 46.9981 37.4864 47.252 36.4415C47.4277 35.6993 47.4473 35.3672 47.4082 34.2051C47.3691 33.0626 47.3203 32.7012 47.0957 32.0079C46.1484 29.0879 44.0781 26.9688 41.2852 26.0704C40.7676 25.9044 39.6152 25.6602 39.3125 25.6602C39.2734 25.6602 39.2246 22.584 39.2148 18.8243C39.1856 12.9063 39.166 11.9786 39.0391 11.8516C38.9609 11.7833 36.8906 10.5626 34.4492 9.15631C32.0078 7.75006 28.1602 5.53326 25.9043 4.22467C20.0254 0.826233 20.0742 0.85553 19.8496 0.85553C19.7324 0.85553 15.3672 3.32623 10.1328 6.34381ZM22.9844 3.9024C24.752 4.91803 26.0215 5.70905 25.9727 5.75787C25.8262 5.90436 8.64844 15.7969 8.54102 15.7969C8.4043 15.7969 2.30078 12.2618 2.35938 12.2129C2.44727 12.1251 19.752 2.13483 19.8301 2.13483C19.8691 2.12506 21.2949 2.92584 22.9844 3.9024ZM29.0879 7.41803C30.0547 7.97467 30.8359 8.44342 30.8359 8.47271C30.8262 8.52154 13.5605 18.502 13.3848 18.5508C13.1992 18.6094 9.72266 16.5489 9.85938 16.4708C11.1875 15.67 27.2031 6.4317 27.2617 6.4317C27.3105 6.42194 28.1309 6.87115 29.0879 7.41803ZM34.7422 10.6895C36.1973 11.5294 37.3496 12.2422 37.3106 12.2813C37.2129 12.379 20.123 22.2422 19.9375 22.3106C19.8301 22.3497 14.8398 19.5665 14.6055 19.3321C14.5566 19.2833 31.9395 9.15631 32.0762 9.15631C32.0859 9.15631 33.2871 9.8399 34.7422 10.6895ZM7.98438 24.6837C8.0332 33.1212 8.00391 32.6817 8.53125 32.6915C8.63867 32.6915 9.16602 32.5059 9.69336 32.2911C10.6309 31.9004 10.6602 31.8907 10.8066 32.0762C10.8945 32.1739 11.4219 32.7794 11.9785 33.4044C12.7891 34.3223 13.0332 34.5469 13.248 34.5469C13.8242 34.5469 13.7949 34.9962 13.8438 27.3301L13.8926 20.2989L16.5488 21.8321L19.2148 23.3653V34.4297C19.2148 41.3243 19.1758 45.4844 19.127 45.4649C19.0684 45.4551 15.1426 43.1895 10.3867 40.4551L1.74414 35.4747L1.73438 24.3712V13.2774L4.83984 15.0645L7.93555 16.8614L7.98438 24.6837ZM37.9648 19.5079C37.9648 22.8868 37.9356 25.6602 37.8965 25.6602C37.584 25.6602 36.4316 25.8946 35.9141 26.0606C33.6484 26.793 31.7539 28.4239 30.6699 30.5919C30.0645 31.793 29.8398 32.711 29.791 34.2051C29.7324 35.9141 29.9277 36.8516 30.6504 38.3458C30.9238 38.9024 31.1094 39.3907 31.0606 39.4297C30.9434 39.5372 20.6016 45.4844 20.543 45.4844C20.5039 45.4844 20.4844 40.504 20.4844 34.42V23.3653L26.4121 19.9473C29.6738 18.0626 33.5703 15.8165 35.084 14.9473C36.5879 14.0782 37.8477 13.3555 37.8965 13.3555C37.9356 13.3555 37.9648 16.1192 37.9648 19.5079ZM12.5547 19.5469C12.6426 19.6348 12.6719 21.0118 12.6523 26.0118L12.623 32.3692L11.8613 31.5001C10.9824 30.504 10.9531 30.4942 9.91797 30.9337C9.54688 31.0997 9.21484 31.2266 9.19531 31.2266C9.17578 31.2266 9.15625 28.1504 9.15625 24.3907V17.5645L10.7969 18.502C11.6953 19.0196 12.4863 19.4883 12.5547 19.5469ZM40.7481 27.1251C44.0977 28.1797 46.2656 31.0997 46.2656 34.5469C46.2656 36.2364 45.7188 37.8379 44.7129 39.1172C44.3906 39.5274 41.041 43.0723 39 45.1622L38.5996 45.5821L36.0117 42.8868C32.6523 39.3907 32.291 38.961 31.7637 37.9454C31.1582 36.7833 30.9336 35.8555 30.9336 34.5469C30.9336 30.8262 33.502 27.711 37.1934 26.9297C37.9551 26.7735 39.9766 26.8809 40.7481 27.1251Z" fill="white"/>
<path d="M37.1836 28.0625C35.5527 28.4922 33.9512 29.7813 33.2383 31.2266C32.1934 33.375 32.4668 35.8652 33.961 37.75C34.6836 38.668 36.0313 39.5176 37.2324 39.8105C37.5059 39.8789 38.1406 39.9375 38.6485 39.9375C42.4277 39.9277 45.25 36.3926 44.459 32.6621C44.2149 31.5098 43.707 30.6016 42.7988 29.6934C41.9297 28.8242 41.1192 28.3457 39.9668 28.0527C39.2539 27.8672 37.8965 27.877 37.1836 28.0625ZM39.7715 29.2246C40.6309 29.4492 41.4024 29.9082 42.0469 30.582C43.541 32.1348 43.8438 34.2441 42.8574 36.1875C42.0371 37.7988 40.4356 38.7559 38.541 38.7559C35.5039 38.7656 33.1797 35.9531 33.8047 33.0039C34.3809 30.2402 37.086 28.5313 39.7715 29.2246Z" fill="white"/>
</svg>
