<svg width="56" height="56" viewBox="0 0 56 56" fill="none" xmlns="http://www.w3.org/2000/svg">
<path d="M13.7813 0.229687C10.3031 0.623438 7.12031 2.17656 4.59375 4.70312C2.32969 6.95625 0.820313 9.81094 0.251563 12.9062C-0.0328122 14.4594 3.05474e-07 17.1937 0.317188 18.6922C1.21406 22.925 3.63125 26.4578 7.25156 28.7984C9.8 30.4391 12.8625 31.2594 16.1328 31.1391C18.5391 31.0625 20.1906 30.6469 22.3672 29.5969C26.7969 27.4422 29.8703 23.4062 30.8438 18.4516C30.9531 17.9156 30.9422 17.7734 30.8 17.5547C30.5703 17.1937 30.2531 17.0406 29.925 17.1281C29.5094 17.2266 29.4328 17.3797 29.1047 18.7359C28.6016 20.7484 27.6719 22.75 26.6875 23.9531L26.3703 24.3359L25.9 24.0844C25.6375 23.9422 24.0078 23.2859 22.2578 22.6078L19.0859 21.3828L19.0531 20.7484C19.0203 20.125 19.0313 20.1031 19.5781 19.5016C20.1906 18.8344 20.7156 17.8828 20.8359 17.2375C20.9125 16.8766 20.9781 16.8 21.4266 16.6031C22.1922 16.275 22.5859 15.925 22.9031 15.2906C23.2859 14.5359 23.2859 13.7812 22.9141 13.0812C22.6625 12.6109 22.6406 12.4469 22.6406 11.1781C22.6406 9.46094 22.4547 8.54219 21.875 7.37187C21.0438 5.69844 19.4688 4.34219 17.6859 3.7625C16.5375 3.37969 14.6672 3.33594 13.6172 3.65312C11.7141 4.22187 10.0625 5.54531 9.22031 7.175C8.52031 8.50937 8.41094 9.02344 8.34531 10.9375C8.30156 12.4359 8.25781 12.6984 8.02813 13.1687C7.71094 13.825 7.68906 14.5359 7.97344 15.1484C8.21406 15.6953 9.07813 16.4719 9.61406 16.6359C9.98594 16.7453 10.0297 16.8 10.2156 17.4672C10.4453 18.2437 11.025 19.1953 11.6375 19.7859C11.9984 20.1359 12.0313 20.2234 12.0313 20.7703V21.3828L8.82656 22.6187C7.05469 23.3078 5.41406 23.975 5.1625 24.1172L4.70313 24.3797L4.22188 23.7016C1.575 19.9828 0.907813 14.8641 2.54844 10.7734C3.10625 9.40625 3.31406 8.99063 4.01406 7.94062C5.28281 6.04844 7.65625 3.95938 9.46094 3.16094C11.9875 2.05625 14 1.65156 16.2859 1.79375C19.7531 2.00156 22.7391 3.31406 25.2219 5.70938C27.3766 7.79844 28.7875 10.4562 29.2578 13.3438C29.4328 14.4812 29.5531 14.7437 29.9141 14.8312C30.3625 14.9406 30.7344 14.7875 30.8875 14.4266C31.0078 14.1531 31.0078 13.9234 30.8875 13.2016C30.5156 10.9047 29.6297 8.69531 28.2516 6.70469C27.5516 5.6875 25.3969 3.55469 24.3578 2.85469C21.1969 0.732813 17.5 -0.185938 13.7813 0.229687ZM17.1938 5.34844C19.4797 6.13594 21 8.23594 21 10.6094V11.2875L20.4859 10.7078C20.2016 10.3797 19.7203 9.85469 19.4031 9.5375C18.6375 8.76094 18.3641 8.76094 16.7781 9.57031C15.2031 10.3797 13.9672 10.7188 12.3594 10.7844C10.7406 10.8609 10.6422 10.8828 10.2484 11.2984L9.92031 11.6484L9.98594 10.5547C10.0516 9.30781 10.2922 8.50937 10.8609 7.62344C11.6922 6.32187 13.0703 5.40312 14.6563 5.09687C15.1813 4.99844 16.5813 5.12969 17.1938 5.34844ZM18.8453 11.3203L19.3703 11.9219L19.3375 14.4047C19.3047 16.8 19.2938 16.9203 19.0313 17.4453C18.0578 19.4469 15.6516 20.2453 13.6391 19.2281C13.0156 18.9109 12.2719 18.1234 11.9438 17.4125C11.6594 16.8109 11.6484 16.7016 11.6156 14.6234L11.5719 12.4688H12.2281C13.7047 12.4688 15.7828 11.9328 17.2813 11.1562C17.7297 10.9266 18.1563 10.7297 18.2109 10.7297C18.2766 10.7297 18.5609 10.9922 18.8453 11.3203ZM9.95313 14.2406L9.94219 15.0391L9.67969 14.7328C9.34063 14.35 9.32969 14.0328 9.64688 13.7047C9.77813 13.5625 9.89844 13.4531 9.92031 13.4531C9.94219 13.4531 9.95313 13.8141 9.95313 14.2406ZM21.35 13.6391C21.6125 13.8797 21.6016 14.4484 21.3281 14.7437C21.1969 14.875 21.0766 14.9844 21.0547 14.9844C21.0219 14.9844 21 14.6344 21 14.2188C21 13.7922 21.0328 13.4531 21.0766 13.4531C21.1094 13.4531 21.2406 13.5297 21.35 13.6391ZM17.5 22.0062C17.5766 22.2797 17.7297 22.4766 17.9922 22.6406C18.4516 22.925 18.4297 23.0016 17.5328 23.8547C16.0672 25.2437 14.5469 25.1453 13.1469 23.5484L12.6 22.925L12.9281 22.7609C13.3656 22.5531 13.6719 22.0391 13.6719 21.5031C13.6719 21.0875 13.6719 21.0875 14.0328 21.1531C14.8859 21.3062 16.1547 21.3281 16.7344 21.1969L17.3359 21.0437L17.3688 21.3281C17.3797 21.4812 17.4453 21.7875 17.5 22.0062ZM22.5641 24.4891C23.9422 25.025 25.0906 25.4953 25.1234 25.5281C25.3203 25.725 23.4391 27.1687 22.05 27.9016C19.9719 28.9953 18.3641 29.4219 15.9906 29.5094C13.3109 29.5969 11.2766 29.1156 8.87031 27.825C7.60156 27.1359 5.75313 25.7031 5.92813 25.5391C6.00469 25.4625 10.7406 23.625 10.8609 23.625C10.9156 23.625 11.4406 24.1062 12.0203 24.6969C13.1578 25.8562 13.6938 26.1844 14.7656 26.3812C15.2688 26.4797 15.6188 26.4797 16.1547 26.3922C17.2922 26.1953 17.9375 25.7906 19.075 24.5875C19.6219 24.0078 20.0703 23.5266 20.0703 23.5156C20.0703 23.5156 21.1969 23.9531 22.5641 24.4891Z" fill="#4B61D6"/>
<path d="M31.8937 8.54219C31.6859 8.70625 31.6094 8.87031 31.6094 9.13281C31.6094 9.60313 31.9484 9.87656 32.7906 10.1172C36.6406 11.1781 40.4141 13.7484 42.8312 16.9422C43.5312 17.8609 43.6297 18.0469 43.4219 18.0469C43.3562 18.0469 42.8422 18.2656 42.2734 18.5281C41.0484 19.0969 40.7531 19.4469 40.8297 20.2125C40.8625 20.475 40.9719 20.7812 41.0812 20.9125C41.3 21.1531 45.5219 24.0078 46.1234 24.3141C46.3203 24.4234 46.6156 24.5 46.7797 24.5C47.1953 24.5 47.7531 24.1391 47.95 23.7563C48.0375 23.5813 48.3437 22.1266 48.6172 20.5297C49.0766 17.8719 49.0984 17.5875 48.9672 17.2594C48.7484 16.7672 48.3437 16.4062 47.8844 16.3406C47.5891 16.2859 47.25 16.3844 46.3203 16.7781C45.6641 17.0625 45.1062 17.2484 45.0625 17.2047C45.0187 17.1609 44.625 16.625 44.1875 16.0344C42.2625 13.4531 39.6375 11.2984 36.5859 9.83281C35.3609 9.23125 32.7906 8.3125 32.375 8.3125C32.2656 8.3125 32.0578 8.41094 31.8937 8.54219ZM47.3156 18.4516C47.2828 18.6266 47.1078 19.6109 46.9219 20.6609C46.7469 21.7109 46.5719 22.5859 46.55 22.6078C46.5281 22.6406 45.6531 22.0938 44.6141 21.3937L42.7219 20.1359L43.2687 19.8953C44.8984 19.1625 47.2062 18.1672 47.2828 18.1672C47.3375 18.1562 47.3484 18.2875 47.3156 18.4516Z" fill="#4B61D6"/>
<path d="M37.3625 25.1562C34.2672 25.8125 31.7844 27.1578 29.5203 29.4109C26.4906 32.4297 24.9375 36.1594 24.9375 40.414C24.9375 43.0281 25.4953 45.2812 26.6984 47.5672C28.6891 51.3515 32.1891 54.2062 36.2797 55.3437C40.1516 56.4375 44.6141 55.8906 48.0703 53.9109C52.0516 51.625 54.7203 47.95 55.6828 43.4109C56 41.9234 56.0328 39.1672 55.7484 37.6687C54.7094 32.0578 50.7062 27.4312 45.3578 25.6484C44.0562 25.2219 42.4156 24.8937 42.0437 24.9812C41.6719 25.0797 41.3984 25.6594 41.5516 26.064C41.6937 26.4359 41.8469 26.4906 43.4437 26.8406C50.5094 28.35 55.2453 35.2187 54.1844 42.4265C53.8891 44.4937 52.9922 46.714 51.7891 48.4094L51.2969 49.0984L50.8375 48.8359C50.5859 48.6937 48.9453 48.0265 47.1734 47.3375L43.9687 46.1015V45.4562C43.9687 44.8547 43.9906 44.789 44.4719 44.264C45.0297 43.6406 45.5328 42.7109 45.7187 41.9672C45.8391 41.5297 45.8937 41.464 46.2875 41.3547C46.8891 41.1687 47.8516 40.2172 48.0047 39.6484C48.1906 38.9812 48.1469 38.5328 47.8625 37.8547C47.6328 37.3297 47.5891 37.0234 47.5344 35.6562C47.4797 33.8953 47.3375 33.25 46.7687 32.1015C45.7734 30.1109 43.9141 28.7109 41.6828 28.2625C38.0625 27.5515 34.3984 29.9031 33.4687 33.5344C33.3047 34.1687 33.25 34.7484 33.25 35.8312C33.25 37.1765 33.2281 37.3297 32.9766 37.8C32.4625 38.7734 32.6922 40.075 33.5016 40.7531C33.6984 40.9172 34.1031 41.1578 34.4094 41.3C34.9125 41.5187 34.9781 41.5953 35.0547 41.9672C35.175 42.6344 35.8531 43.8156 36.4437 44.3734C36.9687 44.8875 36.9797 44.9094 36.9469 45.5L36.9141 46.1015L33.7422 47.3265C32.0031 48.0047 30.3625 48.6609 30.1 48.8031L29.6297 49.0547L29.3125 48.6719C28.3828 47.5344 27.4422 45.5656 26.9391 43.6625C26.6766 42.7 26.6547 42.4047 26.6437 40.4687C26.6437 38.6094 26.6656 38.2047 26.8844 37.3078C28.1969 31.8281 32.6156 27.639 38.0625 26.6875C38.8828 26.5453 39.2656 26.2609 39.2656 25.7906C39.2656 25.4297 38.8391 24.9375 38.5328 24.9484C38.4234 24.9484 37.8984 25.0469 37.3625 25.1562ZM41.6828 29.9578C43.6078 30.45 45.0734 31.8609 45.675 33.7859C45.7625 34.0594 45.8609 34.7047 45.8937 35.2187C45.9594 36.1375 45.9594 36.1484 45.7625 35.875C45.4453 35.4265 44.1656 34.0812 43.8703 33.8844C43.4656 33.6109 42.8969 33.6437 42.3281 33.9609C40.4797 35.0109 39.0906 35.4265 37.0344 35.5359L35.5141 35.6125L35.2078 35.9625L34.8906 36.3125V35.4594C34.8906 32.6484 36.7062 30.4062 39.4297 29.8594C40.1734 29.7172 40.8406 29.739 41.6828 29.9578ZM43.7391 36.0281L44.3187 36.6078L44.275 39.0578C44.2422 41.4422 44.2312 41.5187 43.9469 42.1312C43.575 42.9297 42.8203 43.6844 42.0219 44.0562C41.4859 44.3078 41.2562 44.3515 40.4141 44.3515C39.5609 44.3515 39.3422 44.3078 38.7406 44.0344C37.8766 43.6297 37.0781 42.7875 36.7609 41.9453C36.5531 41.4094 36.5312 41.0922 36.5312 39.2656V37.1875H37.1766C38.6312 37.1875 40.7531 36.6297 42.2734 35.8422C42.7 35.6234 43.0609 35.4484 43.0937 35.4375C43.1266 35.4375 43.4219 35.7 43.7391 36.0281ZM34.8906 38.8828C34.8906 39.4297 34.8578 39.5937 34.7266 39.5937C34.5297 39.5937 34.3437 39.2547 34.3437 38.8937C34.3437 38.6531 34.6719 38.1719 34.8359 38.1719C34.8687 38.1719 34.8906 38.489 34.8906 38.8828ZM46.3094 38.4125C46.5609 38.7625 46.5281 39.1015 46.2109 39.4515L45.9484 39.7578L45.9375 38.9594C45.9375 38.139 46.025 38.0078 46.3094 38.4125ZM40.4141 45.9922C40.8953 45.9922 41.5187 45.9484 41.8141 45.8937L42.3281 45.8062V46.2984C42.3281 46.8344 42.6781 47.3922 43.1047 47.5234C43.3016 47.589 43.2687 47.6547 42.7547 48.2453C42.0547 49.0656 41.4312 49.4375 40.6437 49.514C39.7578 49.6015 39.1562 49.339 38.2594 48.475C37.8437 48.0812 37.5156 47.7312 37.5156 47.6875C37.5156 47.6547 37.6906 47.5344 37.9094 47.4359C38.3359 47.2281 38.6094 46.725 38.6094 46.1453V45.8062L39.0797 45.9047C39.3312 45.9484 39.9328 45.9922 40.4141 45.9922ZM48.0484 49.4375C49.2078 49.8859 50.0828 50.2906 50.0609 50.3562C49.9844 50.5969 48.1578 51.9859 47.25 52.4781C45.1062 53.6594 43.3562 54.1406 40.95 54.2172C38.5328 54.3047 36.5641 53.9109 34.475 52.9156C33.4031 52.4125 31.9922 51.4719 31.2594 50.7937C30.7781 50.3453 30.7562 50.3015 30.9641 50.2031C31.2484 50.05 35.6562 48.3437 35.7656 48.3437C35.8094 48.3437 36.3016 48.8031 36.8484 49.3719C37.9641 50.4984 38.6203 50.9031 39.6812 51.1C40.1953 51.1984 40.5234 51.1984 41.0812 51.089C42.2297 50.8812 42.8094 50.5203 43.9578 49.3281L44.9969 48.2562L45.4891 48.4531C45.7625 48.5625 46.9219 49 48.0484 49.4375Z" fill="#4B61D6"/>
<path d="M7.66719 31.2922C7.47031 31.336 7.15312 31.511 6.97812 31.686C6.67188 31.9922 6.62813 32.1563 6.16875 34.7922C5.90625 36.3234 5.6875 37.7563 5.6875 37.9859C5.6875 38.7953 6.23438 39.375 7 39.375C7.18594 39.375 7.7875 39.1891 8.33437 38.9703C9.03437 38.675 9.35156 38.5984 9.37344 38.6859C9.51562 39.0906 11.2656 41.5516 12.075 42.4594C14.9078 45.6531 19.1734 48.1141 23.3297 48.9672C24.1938 49.1422 24.3141 49.1422 24.5875 49C24.9922 48.7703 25.1453 48.3 24.9266 47.9281C24.7953 47.6875 24.6203 47.6 23.9531 47.4359C19.25 46.3094 16.2312 44.5703 13.2562 41.3C12.5125 40.4797 10.7406 37.9969 10.8391 37.9094C10.8609 37.8875 11.375 37.6578 11.9766 37.4063C13.2891 36.8484 13.5953 36.6406 13.7812 36.2031C13.9344 35.8203 13.8687 35.0766 13.65 34.8141C13.4313 34.5406 8.64062 31.3797 8.32344 31.2922C8.17031 31.2485 7.875 31.2485 7.66719 31.2922ZM10.1609 34.3766L11.9656 35.5797L11.5828 35.7656C10.8609 36.1375 7.525 37.5266 7.44844 37.4938C7.40469 37.4719 7.54688 36.4656 7.75469 35.2516C8.00625 33.8297 8.18125 33.075 8.25781 33.1188C8.3125 33.1516 9.17656 33.7203 10.1609 34.3766Z" fill="#4B61D6"/>
</svg>
