<svg width="56" height="56" viewBox="0 0 56 56" fill="none" xmlns="http://www.w3.org/2000/svg">
<path d="M2.98594 2.47188C2.66875 2.63594 2.29688 3.18281 2.29688 3.5C2.29688 3.57656 2.37344 3.79531 2.47188 3.99219C2.70156 4.47344 3.20469 4.70313 4.03594 4.70313H4.70313L4.68125 11.3969L4.64844 18.1016L2.8 18.3969C1.78281 18.5609 0.809376 18.7469 0.645314 18.8125C0.492189 18.8781 0.273439 19.0969 0.175001 19.2828C1.26462e-06 19.6109 -0.0109362 20.8578 0.0218763 35.3281L0.0546888 51.0234L0.317189 51.6031C0.656251 52.3469 1.55313 53.1781 2.31875 53.4516C2.87656 53.6375 3.9375 53.6484 28 53.6484C52.0625 53.6484 53.1234 53.6375 53.6813 53.4516C54.4469 53.1781 55.3438 52.3469 55.6828 51.6031L55.9453 51.0234V43.1484V35.2734L55.6391 34.65C55.3109 33.9719 54.7313 33.3922 54.0094 33.0094C53.55 32.7688 53.4406 32.7578 50.1266 32.725L46.7031 32.6922V22.7391C46.7031 12.0313 46.7141 12.2828 46.1453 11.8781C46.0031 11.7797 45.7297 11.7031 45.5328 11.7031C45.2703 11.7031 16.3188 16.2203 14.3609 16.5703L14 16.6359V10.6641V4.70313H14.6016C15.3125 4.70313 15.8703 4.49531 16.1219 4.14531C16.3516 3.81719 16.3516 3.18281 16.1219 2.85469C15.7281 2.30781 15.6516 2.29688 9.275 2.29688C4.10156 2.29688 3.29219 2.31875 2.98594 2.47188ZM11.6813 10.85L11.6484 17.0078L9.46094 17.3578C8.25781 17.5438 7.20781 17.7078 7.14219 17.7078C7.03281 17.7188 7 16.3516 7 11.2109V4.70313H9.35156H11.7031L11.6813 10.85ZM44.2969 23.4609V32.7031H36.4328C27.2891 32.7031 27.825 32.6484 26.7313 33.7422C25.6375 34.8359 25.6922 34.3 25.725 43.4547L25.7578 51.2969H14.4375C1.87031 51.2969 2.77813 51.3516 2.45 50.575C2.23125 50.0609 2.22031 20.9125 2.43906 20.8359C2.50469 20.8141 3.4125 20.6609 4.42969 20.4969C5.45781 20.3438 14.7547 18.8672 25.1016 17.2266C35.4484 15.5859 44.0016 14.2406 44.1109 14.2297C44.2859 14.2188 44.2969 14.7219 44.2969 23.4609ZM53.0578 35.175C53.7141 35.5031 53.7031 35.4047 53.7031 43.1484C53.7031 50.7391 53.7031 50.7281 53.1453 51.1219C52.9266 51.2641 52.5656 51.2969 50.9469 51.2969H49.0109L48.9781 47.9281L48.9453 44.5703L48.65 44.0125C48.2125 43.1813 47.8844 42.8422 47.1188 42.4266L46.4297 42.0547H40.8516H35.2734L34.65 42.3609C33.9719 42.6891 33.3922 43.2688 33.0094 43.9906C32.7688 44.45 32.7578 44.5594 32.725 47.8734L32.6922 51.2969H30.7891C28.7 51.2969 28.4484 51.2422 28.1641 50.7063C28.0109 50.4 27.9891 49.6672 28.0219 43.0281C28.0547 35.8531 28.0547 35.6781 28.2734 35.4375C28.3938 35.3063 28.5906 35.1531 28.7109 35.0984C28.8313 35.0547 34.2891 35.0109 40.8297 35.0109C51.4281 35 52.7625 35.0219 53.0578 35.175ZM39.6813 47.8188L39.7031 51.2969H37.3516H35V48.2891C35 45.7625 35.0328 45.2156 35.175 44.9422C35.4594 44.3844 35.8203 44.2969 37.8438 44.3297L39.6484 44.3516L39.6813 47.8188ZM45.9922 44.4719C46.6594 44.7891 46.7031 45.0188 46.7031 48.3328V51.2969H44.3516H42V47.7969V44.2969H43.8156C45.2375 44.2969 45.7078 44.3297 45.9922 44.4719Z" fill="#4B61D6"/>
<path d="M7.68906 23.4609C7.0875 23.7234 6.97812 24.0953 7.02187 25.8234C7.05468 27.3109 7.05468 27.3438 7.36093 27.6391C7.65625 27.9453 7.68906 27.9453 9.17656 27.9781C11.5062 28.0328 11.7031 27.8578 11.7031 25.6375C11.7031 23.5266 11.4625 23.2969 9.32968 23.2969C8.47656 23.3078 7.91875 23.3516 7.68906 23.4609Z" fill="#4B61D6"/>
<path d="M16.9859 23.4719C16.4391 23.7453 16.2969 24.1828 16.2969 25.6375C16.2969 27.8578 16.4938 28.0328 18.8234 27.9781C20.3109 27.9453 20.3438 27.9453 20.6391 27.6391C20.9453 27.3438 20.9453 27.3109 20.9781 25.8234C21.0328 23.4828 20.8578 23.2969 18.6266 23.2969C17.675 23.2969 17.2484 23.3516 16.9859 23.4719Z" fill="#4B61D6"/>
<path d="M26.4031 23.45C25.7797 23.7234 25.7031 23.9422 25.7031 25.6156C25.7031 27.9016 25.7906 28 28 28C30.2094 28 30.2969 27.9016 30.2969 25.6156C30.2969 23.9313 30.2312 23.7234 29.575 23.45C29.0828 23.2422 26.8734 23.2531 26.4031 23.45Z" fill="#4B61D6"/>
<path d="M35.6891 23.4609C35.0875 23.7234 34.9781 24.0953 35.0219 25.8234C35.0547 27.3109 35.0547 27.3438 35.3609 27.6391C35.6562 27.9453 35.6891 27.9453 37.1766 27.9781C39.5062 28.0328 39.7031 27.8578 39.7031 25.6375C39.7031 23.5266 39.4625 23.2969 37.3297 23.2969C36.4766 23.3078 35.9187 23.3516 35.6891 23.4609Z" fill="#4B61D6"/>
<path d="M7.59062 32.8234C7.10937 33.0641 7 33.4578 7 35C7 37.2094 7.09844 37.2969 9.38437 37.2969C11.5281 37.2969 11.7031 37.1328 11.7031 35C11.7031 32.8672 11.5391 32.7031 9.35156 32.7141C8.50937 32.7141 7.72187 32.7687 7.59062 32.8234Z" fill="#4B61D6"/>
<path d="M16.8547 32.8781C16.4281 33.1844 16.2969 33.6766 16.2969 35C16.2969 37.1328 16.4719 37.2969 18.6156 37.2969C20.9016 37.2969 21 37.2094 21 35C21 32.7906 20.9016 32.7031 18.6156 32.7031C17.4016 32.7031 17.0625 32.7359 16.8547 32.8781Z" fill="#4B61D6"/>
<path d="M7.71093 42.0984C7.59062 42.1531 7.39375 42.3062 7.27343 42.4375C7.07656 42.6453 7.05468 42.8641 7.02187 44.1875C6.96718 46.5062 7.14218 46.7031 9.3625 46.7031C11.4625 46.7031 11.7031 46.4625 11.7031 44.3625C11.7031 42.1859 11.5062 42 9.32968 42.0109C8.56406 42.0109 7.83125 42.0547 7.71093 42.0984Z" fill="#4B61D6"/>
<path d="M16.8875 42.2078C16.4172 42.5031 16.2969 42.9297 16.2969 44.3734C16.2969 46.4625 16.5375 46.7031 18.6375 46.7031C20.8578 46.7031 21.0328 46.5062 20.9781 44.1766C20.9453 42.6891 20.9453 42.6562 20.6391 42.3609C20.3437 42.0547 20.3219 42.0547 18.7797 42.0219C17.4016 42 17.1937 42.0109 16.8875 42.2078Z" fill="#4B61D6"/>
</svg>
