<svg width="56" height="56" viewBox="0 0 56 56" fill="none" xmlns="http://www.w3.org/2000/svg">
<path d="M22.1922 1.08281L21.9297 1.29063L21.875 16.3734L21.8203 31.4563L18.0469 29.2906C15.9688 28.1094 14.1641 27.1359 14.0219 27.125C13.7484 27.125 1.35625 34.1469 1.07187 34.475C0.885937 34.6828 0.875 35.1531 0.875 41.125C0.875 47.0969 0.885937 47.5672 1.07187 47.775C1.33437 48.0813 13.7375 55.125 14 55.125C14.2844 55.125 26.6656 48.0813 26.9391 47.775C27.0922 47.5891 27.125 47.3266 27.125 46.0906V44.625H35.8641H44.6141L44.6469 48.5953L44.6797 52.5547L44.975 53.1125C45.4125 53.9438 45.7406 54.2828 46.5062 54.6984C47.1406 55.0375 47.2719 55.0703 48.125 55.0703C48.9781 55.0703 49.1094 55.0375 49.7437 54.6984C50.5094 54.2828 50.8375 53.9438 51.275 53.1125L51.5703 52.5547L51.6031 48.5844L51.6359 44.625H53.1125C54.5344 44.625 54.6 44.6141 54.8516 44.3516L55.125 44.0891V27.1031V10.1172L50.4984 5.50156L45.8828 0.875H34.1578C22.7937 0.875 22.4438 0.885937 22.1922 1.08281ZM44.625 6.72656V10.8391L44.8984 11.1016L45.1609 11.375H49.2734H53.375V27.125V42.875H52.5H51.625V35.3609V27.8578L50.2578 24.1828C49.3828 21.8641 48.7922 20.4422 48.65 20.3109C48.5297 20.2125 48.2891 20.125 48.125 20.125C47.9609 20.125 47.7203 20.2125 47.6 20.3109C47.4578 20.4422 46.8672 21.8641 45.9922 24.1828L44.625 27.8578V35.3609V42.875H35.875H27.125V38.7953C27.125 35.6234 27.0922 34.6719 26.9828 34.5188C26.9062 34.4094 26.1297 33.9172 25.2656 33.4141L23.6797 32.5063L23.6469 17.5656L23.625 2.625H34.125H44.625V6.72656ZM49.2734 6.78125L52.1172 9.625H49.2406H46.375V6.78125C46.375 5.21719 46.3859 3.9375 46.4078 3.9375C46.4188 3.9375 47.7094 5.21719 49.2734 6.78125ZM48.8797 25.5063C49.2734 26.5453 49.6016 27.4531 49.6344 27.5297C49.6562 27.5953 49.3281 27.8906 48.9016 28.175L48.125 28.6891L47.3484 28.175C46.9219 27.8906 46.5938 27.5953 46.6156 27.5297C47.0203 26.3813 48.0812 23.625 48.125 23.625C48.1578 23.625 48.4969 24.4781 48.8797 25.5063ZM19.2719 32.0141C22.0938 33.6328 24.3906 34.9781 24.3906 35.0109C24.3906 35.0438 23.8 35.4047 23.0781 35.8094L21.7656 36.5531L16.6141 33.6109C13.7812 31.9813 11.4625 30.6141 11.4625 30.5703C11.4625 30.45 13.7812 29.0938 14 29.0938C14.0875 29.0938 16.4609 30.4062 19.2719 32.0141ZM47.25 39.1672V48.125H46.8125H46.375V38.8828V29.6406L46.8125 29.925L47.25 30.2203V39.1672ZM49.875 38.8828V48.125H49.4375H49V39.1672V30.2203L49.4156 29.9359C49.6344 29.7828 49.8312 29.6516 49.8531 29.6516C49.8641 29.6406 49.875 33.7969 49.875 38.8828ZM15.3453 34.8906L21 38.1172V39.7797V41.4531L20.125 41.8906L19.25 42.3281V40.6984C19.25 39.3094 19.2172 39.0359 19.0641 38.85C18.9547 38.7297 16.4828 37.2641 13.5625 35.6016C10.6422 33.9391 8.21406 32.5391 8.17031 32.4953C8.07188 32.3969 9.38437 31.5875 9.57031 31.6422C9.63594 31.6531 12.2281 33.1187 15.3453 34.8906ZM11.4297 36.4109C14.2625 38.0188 16.5703 39.3859 16.5594 39.4406C16.5484 39.5609 14.2188 40.9062 14.0109 40.9062C13.8578 40.9062 3.60938 35.0875 3.60938 35C3.60938 34.9453 6.13594 33.4797 6.23438 33.4688C6.26719 33.4688 8.59687 34.7922 11.4297 36.4109ZM8.61875 39.9219L13.125 42.4922V47.6109V52.7406L12.4797 52.3688C12.1297 52.1719 9.76719 50.8266 7.24062 49.3828L2.625 46.7578V41.6391V36.5094L3.36875 36.9359C3.78437 37.1656 6.14687 38.5109 8.61875 39.9219ZM25.375 41.6391V46.7578L20.8687 49.3281C18.3969 50.7391 16.0344 52.0844 15.6187 52.3141L14.875 52.7406V47.6109V42.4922L16.1656 41.7703L17.4453 41.0484L17.5 42.6234C17.5547 44.1219 17.5656 44.2203 17.8172 44.4172C17.9594 44.5266 18.1891 44.625 18.3312 44.625C18.7031 44.625 22.4984 42.7 22.6406 42.4484C22.7062 42.3172 22.75 41.3766 22.75 40.1188V38.0078L24.0406 37.275C24.7406 36.8703 25.3312 36.5312 25.3531 36.5312C25.3641 36.5312 25.375 38.8281 25.375 41.6391ZM49.8531 51.0672C49.8203 52.3578 49.7219 52.6094 49.0656 53.0906C48.6391 53.4078 47.6109 53.4078 47.1844 53.0906C46.5281 52.6094 46.4297 52.3578 46.3969 51.0672L46.3531 49.875H48.125H49.8969L49.8531 51.0672Z" fill="#4B61D6"/>
<path d="M25.375 14V14.875H26.25H27.125V14V13.125H26.25H25.375V14Z" fill="#4B61D6"/>
<path d="M28.875 14V14.875H40.25H51.625V14V13.125H40.25H28.875V14Z" fill="#4B61D6"/>
<path d="M25.375 17.5V18.375H36.75H48.125V17.5V16.625H36.75H25.375V17.5Z" fill="#4B61D6"/>
<path d="M49.875 17.5V18.375H50.75H51.625V17.5V16.625H50.75H49.875V17.5Z" fill="#4B61D6"/>
<path d="M25.375 21V21.875H34.125H42.875V21V20.125H34.125H25.375V21Z" fill="#4B61D6"/>
<path d="M25.375 24.5V25.375H34.125H42.875V24.5V23.625H34.125H25.375V24.5Z" fill="#4B61D6"/>
</svg>
