<svg width="860" height="35" viewBox="0 0 860 35" fill="none" xmlns="http://www.w3.org/2000/svg">
<line x1="13.9988" y1="17" x2="842.999" y2="16.0104" stroke="#6981FF" stroke-width="2"/>
<circle cx="17.5" cy="17.5" r="16" fill="#F5F5F5" stroke="#6981FF" stroke-width="3"/>
<circle cx="429.5" cy="17.5" r="16" fill="#F5F5F5" stroke="#6981FF" stroke-width="3"/>
<circle cx="842.5" cy="17.5" r="16" fill="#F5F5F5" stroke="#6981FF" stroke-width="3"/>
<path d="M849.985 11.4215C849.92 11.4666 847.5 13.866 844.612 16.7576C841.725 19.6492 839.346 22.0117 839.321 22.0117C839.297 22.0117 838.32 21.0519 837.152 19.883C834.81 17.541 834.879 17.5984 834.506 17.7092C834.293 17.7707 834.067 18.0168 834.026 18.2178C833.961 18.5787 833.907 18.5213 836.504 21.1176C837.828 22.4465 838.969 23.558 839.038 23.5908C839.202 23.6687 839.477 23.6687 839.621 23.5949C839.682 23.5621 842.254 21.0109 845.338 17.9225C850.933 12.3238 850.945 12.3115 850.97 12.1187C850.994 11.9588 850.982 11.8891 850.904 11.7291C850.773 11.4666 850.633 11.3764 850.346 11.36C850.162 11.3476 850.08 11.36 849.985 11.4215Z" fill="black"/>
</svg>
