<svg width="50" height="50" viewBox="0 0 50 50" fill="none" xmlns="http://www.w3.org/2000/svg">
<path d="M23.3399 3.66222C20.957 4.05285 19.5508 4.73644 18.0371 6.22081C16.1914 8.02745 15.1758 10.4103 15.0684 13.1349C15.0293 13.9747 15.0586 14.6485 15.1465 15.1368C15.2246 15.5665 15.2637 16.3575 15.2441 17.0607C15.2051 18.8771 15.5176 19.7267 16.6016 20.7325C17.0606 21.1622 17.1973 21.3575 17.3242 21.8165C17.666 22.9884 18.4473 24.4435 19.2676 25.42L19.6582 25.8888L19.4922 27.1778C19.4043 27.8907 19.3359 28.5841 19.3359 28.7208C19.3359 28.965 19.2481 29.004 17.3145 29.6388C11.3867 31.5626 7.94922 33.3595 6.97266 35.0196C6.17188 36.3771 5.42969 39.5216 4.98047 43.4571C4.72657 45.7228 4.72657 45.9474 5.0293 46.2403C5.32227 46.5431 5.67383 46.5528 6.01563 46.2599C6.25977 46.045 6.28907 45.9376 6.40626 44.7657C6.83594 40.5763 7.56837 37.1388 8.30079 35.8595C8.69141 35.1857 9.4336 34.6193 10.9375 33.8478C12.832 32.8712 18.8184 30.6056 19.0039 30.7911C19.0332 30.8204 18.9258 32.0411 18.7598 33.506C18.4766 35.9474 18.4668 36.1818 18.6035 36.3966C18.8184 36.7189 19.2188 36.8556 19.5117 36.7189C19.6484 36.6603 20.332 36.2013 21.0547 35.6935C21.7676 35.1857 22.3828 34.7657 22.4121 34.7657C22.4414 34.7657 22.4609 34.9513 22.4609 35.1759C22.4707 35.4103 22.5488 35.7423 22.6465 35.9181C22.8125 36.2403 22.8125 36.2794 22.4512 38.1153C21.9629 40.6251 21.582 43.2521 21.5137 44.629C21.4551 45.7325 21.4649 45.7618 21.6992 46.0353C22.0313 46.4161 22.5 46.4259 22.8223 46.0548C23.0078 45.84 23.0469 45.6739 23.0469 45.1857C23.0469 43.9552 23.4082 41.4161 24.0918 37.8517L24.4434 36.006L24.2285 35.5763C23.9453 35.0001 23.9356 33.711 24.1992 33.4669C24.4629 33.2228 25.5957 33.2325 25.8106 33.4767C26.0645 33.7599 26.0352 35.0196 25.7715 35.5763L25.5567 36.006L25.9082 37.8517C26.5625 41.2892 26.8359 43.0958 26.9238 44.7169C26.9727 45.6642 27.0117 45.8595 27.1973 46.0743C27.5 46.4259 27.9785 46.4161 28.3008 46.0353C28.5352 45.7618 28.5449 45.7325 28.4863 44.6192C28.3984 42.9884 27.8906 39.629 27.3145 36.9044C27.1875 36.3087 27.1973 36.2306 27.3535 35.9278C27.4512 35.7423 27.5293 35.4103 27.5391 35.1759C27.5391 34.9513 27.5586 34.7657 27.5879 34.7657C27.6172 34.7657 28.2324 35.1857 28.9453 35.6935C29.668 36.2013 30.3516 36.6603 30.4883 36.7189C30.7813 36.8556 31.1817 36.7189 31.3965 36.3966C31.5332 36.1818 31.5234 35.9571 31.25 33.5841C31.0938 32.1681 30.957 30.9474 30.957 30.8693C30.957 30.6739 31.2402 30.7521 33.3008 31.4943C38.5742 33.3985 41.2988 34.8536 41.9336 36.1232C42.627 37.5001 43.2715 40.8204 43.5742 44.4728C43.6817 45.8692 43.711 45.9571 43.9551 46.211C44.2969 46.5528 44.6582 46.5626 44.9902 46.2306C45.2442 45.9767 45.2442 45.9669 45.1856 44.961C44.9805 41.6993 44.2871 37.7931 43.6035 36.0255C43.4668 35.6837 43.2031 35.1661 43.0078 34.8927C41.9531 33.3595 38.1055 31.4161 32.3047 29.5021L30.7813 28.9942L30.7129 28.2423C30.6738 27.8321 30.5859 27.1388 30.5274 26.6993L30.4102 25.9083L30.8399 25.4298C31.7481 24.4337 32.5098 23.0763 32.8613 21.8263C32.9981 21.3575 33.1445 21.1232 33.6035 20.6349C34.4043 19.8048 34.7754 18.9845 34.834 17.9396C34.8731 17.3146 34.834 17.0021 34.6875 16.5333C34.5117 15.9767 34.5117 15.8888 34.6387 15.215C34.8242 14.336 34.8438 12.0021 34.6777 11.1329C34.6094 10.7814 34.4531 10.1075 34.3164 9.62901L34.0723 8.76964L34.4141 8.26183C34.9219 7.5294 35.2051 6.64074 35.166 5.92785C35.1563 5.83019 35.0293 5.61535 34.8731 5.4591C34.5899 5.17589 34.5801 5.17589 33.3789 5.17589C32.0606 5.17589 31.4356 5.0587 30.3809 4.59972C28.75 3.88683 27.5293 3.62316 25.6348 3.56456C24.6387 3.53527 23.9063 3.56456 23.3399 3.66222ZM26.6113 5.18566C27.7539 5.32238 28.7305 5.57628 29.6094 5.96691C30.6738 6.43566 31.4942 6.64073 32.5 6.70909C33.0664 6.74815 33.3984 6.80675 33.3984 6.87511C33.3984 7.01183 33.1738 7.35362 32.793 7.80284C32.3145 8.34972 32.3047 8.48643 32.6172 9.4337C33.0957 10.84 33.2324 11.6407 33.2324 13.086C33.2227 13.8087 33.1836 14.5997 33.1348 14.8439L33.0371 15.2833L32.6465 14.4532C32.2266 13.5743 31.9336 12.4903 31.9336 11.797C31.9336 11.2696 31.6602 10.8204 31.25 10.6446C30.9668 10.5275 30.8203 10.547 29.8926 10.7716C26.8457 11.5333 23.8281 11.6017 20.8008 10.9669C18.9453 10.5763 18.7402 10.5763 18.3691 10.9083C18.0957 11.1525 18.0566 11.2696 17.9688 11.963C17.832 13.0665 17.3828 14.297 16.8652 14.9903C16.7285 15.1661 16.709 15.1564 16.6504 14.7071C16.6113 14.4435 16.6016 13.7208 16.6309 13.0958C16.7578 10.2735 18.0664 7.86144 20.2539 6.3966C21.9141 5.29308 24.0918 4.87316 26.6113 5.18566ZM20.8887 12.588C23.8379 13.1251 26.9531 13.0665 29.6777 12.4415C30.3516 12.2853 30.4688 12.3243 30.4688 12.7442C30.4688 13.1642 30.8887 14.4435 31.2988 15.3028C31.7774 16.2696 32.6367 17.3146 33.0567 17.422C33.252 17.4708 33.3008 17.5392 33.3008 17.8028C33.291 18.506 32.7734 19.4337 32.1289 19.8732C31.7383 20.1466 31.6309 20.3419 31.4453 21.1329C30.957 23.2521 29.209 25.3126 27.2852 26.0353C24.7754 26.9825 22.8125 26.67 21.1133 25.0587C19.9609 23.965 19.2481 22.7735 18.7988 21.2208C18.6328 20.6349 18.4766 20.3028 18.3203 20.1661C18.1934 20.0587 17.9102 19.8341 17.6953 19.6583C17.1582 19.2189 16.7969 18.4669 16.7969 17.7833C16.7969 17.2657 16.8164 17.2267 17.1777 16.9728C18.1543 16.2794 19.1016 14.4728 19.4824 12.5685C19.5215 12.3634 19.5801 12.3048 19.6875 12.3439C19.7754 12.3732 20.3125 12.4903 20.8887 12.588ZM29.1504 28.4278L29.2188 29.1798L27.1387 30.4103C25.9961 31.0939 25.0098 31.631 24.9512 31.6212C24.8926 31.6017 23.9551 31.0646 22.8613 30.42L20.8789 29.2482L20.9375 28.4278C20.9766 27.9786 21.0254 27.5099 21.0547 27.3829L21.1133 27.1681L21.8164 27.5001C23.6524 28.3692 26.1035 28.3009 28.2422 27.3146L28.9551 26.9923L29.0234 27.3341C29.0527 27.5294 29.1211 28.0177 29.1504 28.4278ZM21.8848 31.6505C23.0371 32.3439 23.0371 32.3536 22.8223 32.5099C22.1387 33.0275 20.293 34.297 20.2734 34.2677C20.2539 34.2482 20.3223 33.545 20.4199 32.715C20.5176 31.8849 20.5957 31.1427 20.5957 31.0743C20.6055 31.0157 20.6348 30.9571 20.6641 30.9571C20.6934 30.9571 21.2402 31.2696 21.8848 31.6505ZM29.4043 31.0743C29.4043 31.1427 29.4824 31.8849 29.5801 32.715C29.6777 33.545 29.7461 34.2482 29.7266 34.2677C29.707 34.2872 29.082 33.8575 28.3301 33.3204L26.9531 32.3536L28.1055 31.6603C28.7305 31.2794 29.2774 30.9669 29.3262 30.9571C29.3652 30.9571 29.3945 31.0157 29.4043 31.0743Z" fill="white"/>
<path d="M31.8848 43.9941C31.7285 44.1406 31.6406 44.3457 31.6406 44.5312C31.6406 44.7168 31.7285 44.9219 31.8848 45.0684L32.1191 45.3125H35.9375H39.7559L39.9902 45.0684C40.1465 44.9219 40.2344 44.7168 40.2344 44.5312C40.2344 44.3457 40.1465 44.1406 39.9902 43.9941L39.7559 43.75H35.9375H32.1191L31.8848 43.9941Z" fill="white"/>
</svg>
