<svg width="32" height="32" viewBox="0 0 32 32" fill="none" xmlns="http://www.w3.org/2000/svg">
<path d="M14.5 1.06874C11.8563 1.35624 9.42501 2.27499 7.31251 3.77499C3.98126 6.14374 1.79376 9.69999 1.14376 13.8125C0.987511 14.8187 0.987511 17.1687 1.15001 18.1875C2.09376 24.225 6.42501 29.0312 12.275 30.5312C13.4625 30.8375 14.25 30.9437 15.5938 30.9812C19.725 31.1 23.6125 29.5625 26.5375 26.6562C27.8125 25.3875 28.6313 24.2437 29.4375 22.5937C31.0438 19.3312 31.4063 15.7562 30.4938 12.2062C30.2438 11.2187 29.9438 10.4312 29.4063 9.34374C27.2188 4.91249 23.1375 1.94374 18.1563 1.15624C17.4063 1.03749 15.2438 0.981243 14.5 1.06874ZM17.2563 3.06249C26.2 3.96249 31.5688 13.425 27.75 21.5437C27.4563 22.175 26.8375 23.25 26.7688 23.25C26.7563 23.25 26.4688 23.0062 26.1375 22.7062C25.8 22.4125 25.2625 21.9625 24.9313 21.7187C21.8313 19.4 17.7938 18.3625 13.9688 18.9062C10.9 19.3375 8.23126 20.5937 5.86251 22.7125C5.53126 23.0062 5.24376 23.25 5.23126 23.25C5.21251 23.25 5.05626 23.0187 4.88751 22.7312C2.09376 18.0875 2.43751 12.2937 5.76251 7.99374C8.43126 4.54374 12.8938 2.62499 17.2563 3.06249ZM17.1938 20.8125C20.1813 21.1062 22.7875 22.3 25.025 24.3875L25.5125 24.8437L24.925 25.4125C22.7938 27.4687 20.0375 28.6937 16.95 28.95C13.35 29.2437 9.41876 27.8062 6.93751 25.2875L6.53751 24.875L6.93751 24.4625C7.46876 23.925 8.13751 23.3812 8.87501 22.9C11.3438 21.2812 14.3375 20.5312 17.1938 20.8125Z" fill="#F5F5F5"/>
<path d="M15.0938 5.0625C13.8125 5.26875 12.6938 5.85 11.75 6.80625C10.9438 7.61875 10.4188 8.55 10.1438 9.6625C9.97501 10.35 9.99376 11.7563 10.175 12.4375C10.4875 13.575 10.9375 14.3688 11.7188 15.1625C12.3438 15.7938 12.625 16 13.35 16.3625C15.6063 17.4938 18.3 17.0813 20.1375 15.3188C20.95 14.55 21.5125 13.5813 21.825 12.4438C22.025 11.7313 22.0188 10.3 21.825 9.5625C21.5063 8.39375 21.0688 7.6375 20.2188 6.78125C19.375 5.9375 18.6125 5.49375 17.4688 5.1875C16.8938 5.03125 15.6938 4.96875 15.0938 5.0625ZM16.8438 7.09375C18.6375 7.46875 20 9.15 20 11C20 12.475 19.1063 13.925 17.8 14.5563C16.5875 15.1438 15.4125 15.1438 14.2 14.5563C13.1625 14.0563 12.3375 12.9938 12.0938 11.8375C11.4938 9.0125 14.0063 6.5 16.8438 7.09375Z" fill="#F5F5F5"/>
</svg>
