<svg width="56" height="56" viewBox="0 0 56 56" fill="none" xmlns="http://www.w3.org/2000/svg">
<path d="M6.23438 10.3578C5.87344 10.5547 5.52344 10.8391 5.33751 11.1016C5.14063 11.3969 4.21094 14.1094 2.51563 19.3594C0.185944 26.5562 -0.0109307 27.2234 0.0328193 27.7594C0.109382 28.4922 0.535944 29.225 1.09376 29.5969C1.68438 29.9906 7.74376 31.9375 8.36719 31.9375C8.75001 31.9375 8.88126 31.9812 8.97969 32.1672C9.04532 32.2984 9.28594 32.6047 9.51563 32.8562L9.93126 33.3047L9.13282 34.4969C7.99532 36.1594 7.83126 36.5312 7.83126 37.4609C7.83126 38.3141 8.06094 38.9594 8.58594 39.5719C9.00157 40.0641 9.89844 40.5562 10.5109 40.6437L11.0141 40.7094L11.0797 41.3328C11.2438 43.2469 13.0375 44.5812 14.9078 44.1875C15.2469 44.1219 15.7281 43.925 15.9906 43.75L16.4609 43.4328L16.6469 43.7937C17.5 45.4562 19.8625 45.9484 21.3938 44.7891L21.7328 44.5266L22.0828 44.9531C22.2688 45.1828 22.6844 45.5 23.0234 45.6641C23.5484 45.9266 23.7234 45.9594 24.3688 45.9156C25.3531 45.8391 26.0422 45.4562 26.6 44.6469L26.7641 44.3953L28.1422 45.1172C29.4219 45.7734 29.575 45.8281 30.2203 45.8281C31.0953 45.8281 31.7844 45.5984 32.3531 45.1062C32.8781 44.6578 33.3594 43.75 33.3594 43.1922V42.7984L34.125 42.7328C35.0766 42.6562 35.7219 42.3719 36.4109 41.7266C37.0234 41.1578 37.3953 40.3922 37.4828 39.5391L37.5484 38.9594H38.1609C40.075 38.9703 41.5297 37.6469 41.6938 35.7328L41.7375 35.3172L42.7109 35.2953C43.4875 35.2734 43.7938 35.2078 44.1656 35.0219C45.3031 34.4203 46.0141 33.3812 46.1234 32.1672L46.1891 31.5109L46.5172 31.6859C46.7031 31.7734 47.1188 31.8719 47.4578 31.9047C48.0047 31.9484 48.3875 31.85 51.275 30.9203C53.0469 30.3406 54.6766 29.75 54.9063 29.5969C55.4641 29.225 55.8906 28.4922 55.9672 27.7594C56.0109 27.2234 55.8141 26.5562 53.4844 19.3594C51.7891 14.1094 50.8594 11.3969 50.6625 11.1016C50.4766 10.8391 50.1266 10.5547 49.7656 10.3578C49.2516 10.0844 49.0766 10.0516 48.5078 10.0844C47.6 10.15 41.8578 12.0312 41.2563 12.4578C40.3484 13.125 40.075 14.4156 40.5672 15.7937C40.6984 16.1547 40.7969 16.4719 40.7969 16.5156C40.7969 16.6578 39.4078 16.9531 38.7625 16.9531C38.2484 16.9531 38.0406 16.8875 37.5047 16.5703C35.1969 15.1594 32.8563 14.7109 30.9531 15.2906C30.5047 15.4328 29.7281 15.6953 29.2359 15.8812L28.3391 16.2094L27.2672 15.7719C25.2984 14.9734 24.1281 14.6562 23.0672 14.6562C21.5688 14.6562 19.8516 15.2031 18.2328 16.1984C17.7625 16.4828 17.5766 16.5375 16.9531 16.5375C16.5594 16.5375 16.0125 16.4828 15.7609 16.4062C15.3563 16.2969 15.3016 16.2531 15.3563 16.0453C15.8156 14.4484 15.8266 14.1312 15.4 13.2562C15.0172 12.4578 14.5797 12.2391 11.2219 11.1344C7.59063 9.95312 7.14219 9.88749 6.23438 10.3578ZM10.7188 12.8297C13.4422 13.7375 13.7375 13.8687 13.8688 14.1422C14 14.4156 13.825 15.0062 11.5828 21.9625C10.2484 26.0969 9.08907 29.6078 9.00157 29.7719C8.72813 30.3187 8.49844 30.2859 5.26094 29.2469C2.23126 28.2734 1.75001 28.0437 1.75001 27.5953C1.75001 27.2344 6.67188 12.2172 6.84688 12.0094C6.95626 11.9 7.17501 11.8125 7.37188 11.8234C7.55782 11.8234 9.06719 12.2828 10.7188 12.8297ZM49.1422 12.0094C49.2406 12.1187 50.4438 15.6516 51.8 19.8516C53.7906 26.0094 54.2609 27.5516 54.1844 27.7812C54.0531 28.1531 53.7469 28.2844 50.5203 29.3234C47.5125 30.2859 47.2719 30.3187 46.9984 29.7719C46.9109 29.6078 45.7516 26.0859 44.4062 21.9297C42.1531 14.9406 41.9781 14.3719 42.1203 14.1094C42.2516 13.8797 42.7 13.6937 45.2813 12.8297C46.9328 12.2828 48.4422 11.8234 48.6281 11.8234C48.825 11.8125 49.0438 11.9 49.1422 12.0094ZM24.8281 16.7344C25.3969 16.9094 25.9328 17.1062 26.0094 17.15C26.1078 17.2156 25.9766 17.3359 25.5719 17.5547C23.5922 18.6266 21.3281 20.3547 19.5563 22.1703C18.1453 23.6141 18.1344 23.625 18.8781 25.0578C19.8188 26.8734 20.8688 27.7156 22.2031 27.7156C22.8266 27.7156 23.4719 27.5297 27.5734 26.1625L32.2328 24.6094L33.2828 24.9375C36.1922 25.8562 38.7516 27.1141 41.9453 29.2359C43.8922 30.5156 44.4062 31.0953 44.4062 31.9703C44.4062 32.7687 43.5312 33.5781 42.6672 33.5781C42.2297 33.5781 41.7156 33.3375 38.5547 31.6641C35.7875 30.1984 34.8797 29.7609 34.6719 29.8047C34.3109 29.8922 33.9063 30.3516 33.9063 30.6906C33.9063 30.8437 34.0156 31.0734 34.1578 31.2047C34.2891 31.3469 35.4594 32.0141 36.75 32.6922C38.0406 33.3703 39.2547 34.0812 39.4516 34.2562C39.8891 34.6719 40.075 35.3391 39.9109 35.9297C39.6703 36.8047 38.675 37.4062 37.8438 37.1875C37.625 37.1328 36.3453 36.4875 34.9781 35.7656C33.6219 35.0437 32.3859 34.4531 32.2438 34.4531C31.9375 34.4531 31.5547 34.7703 31.4453 35.1094C31.2703 35.6672 31.5547 35.9297 33.3047 36.8594C35.0656 37.7891 35.5797 38.2047 35.7109 38.8281C35.9625 39.9766 34.9344 41.1359 33.8078 40.9828C33.5891 40.9609 32.375 40.3812 31.1172 39.7141C29.8484 39.0359 28.6891 38.4562 28.525 38.4234C28.2953 38.3797 28.1531 38.4344 27.8797 38.7078C27.5953 39.0031 27.5516 39.1125 27.6063 39.4078C27.65 39.5937 27.7375 39.8125 27.8141 39.8781C27.8797 39.9547 28.6563 40.3922 29.5313 40.8516C31.3688 41.8141 31.6094 42.0437 31.6094 42.8094C31.6094 43.2578 31.5547 43.3891 31.2375 43.7062C30.7016 44.2422 30.2313 44.2203 29.0063 43.5859C27.65 42.8969 27.7484 43.0172 27.9453 42.2516C28.2844 40.9281 27.6609 39.6156 26.4141 39.0359C25.8781 38.7844 24.9156 38.7625 24.2813 38.9922C24.0297 39.0797 23.8 39.1562 23.7781 39.1562C23.7563 39.1562 23.6578 38.9812 23.5594 38.7734C23.4609 38.5547 23.1438 38.1719 22.8484 37.9094C21.8313 36.9906 20.4969 36.8484 19.2063 37.5156C18.8563 37.6906 18.55 37.8328 18.5391 37.8219C18.5281 37.8 18.3641 37.5594 18.1781 37.2859C17.7406 36.6297 16.975 36.1266 16.1875 35.9734L15.5641 35.8531L15.4984 35.2406C15.4109 34.3766 14.9406 33.5125 14.2844 33.0203C13.6391 32.5391 13.0813 32.3531 12.2063 32.3641C11.4516 32.3641 11.025 32.1234 10.6094 31.4453L10.3797 31.0625L10.6422 30.3844C10.7953 30.0016 11.7688 27.0594 12.8078 23.8437C13.8469 20.6281 14.7 17.9812 14.7 17.9703C14.7109 17.9594 15.0063 18.025 15.3672 18.1125C16.1219 18.2875 17.7188 18.3203 18.2328 18.1672C18.4297 18.1125 18.725 17.9703 18.8891 17.85C19.4141 17.4891 20.5844 16.9312 21.3828 16.6687C22.5094 16.2969 23.5266 16.3187 24.8281 16.7344ZM33.9609 16.9531C34.9453 17.2047 35.7328 17.5437 36.7828 18.1781C37.4609 18.5828 37.6031 18.6266 38.4781 18.6812C39.2328 18.7141 39.6375 18.6812 40.3922 18.4844C40.9281 18.3531 41.3766 18.2656 41.3875 18.2875C41.4313 18.3422 44.8438 28.9406 44.8438 29.0062C44.8438 29.0391 43.9469 28.4703 42.8422 27.7375C40.6766 26.3047 38.5547 25.1234 36.75 24.3578C35.3938 23.7891 32.6047 22.8594 32.2438 22.8594C32.1016 22.8594 31.4672 23.0344 30.8328 23.2422C30.2094 23.4609 28.0328 24.1719 25.9984 24.8391C22.6297 25.9328 22.2578 26.0312 21.9297 25.9219C21.4375 25.7578 20.9344 25.2328 20.5625 24.4891L20.2453 23.8766L20.9234 23.2203C23.9422 20.2891 27.5625 18.1234 31.325 17.0078C32.4188 16.6797 32.8672 16.6797 33.9609 16.9531ZM13.2563 34.4203C13.3766 34.5297 13.5516 34.7594 13.6391 34.9344C13.9234 35.4922 13.7703 36.0062 12.8734 37.3406C12.0094 38.6312 11.6484 38.9375 10.9594 38.9375C10.2266 38.9375 9.45001 38.0406 9.55938 37.3078C9.62501 36.8703 11.0688 34.6391 11.4734 34.3437C11.9875 33.9828 12.8188 34.0156 13.2563 34.4203ZM16.3625 37.8984C16.7672 38.1609 16.9859 38.5875 16.9859 39.1125C16.9859 39.5391 16.8875 39.7578 16.1219 40.8844C15.4547 41.8687 15.1594 42.2078 14.8422 42.3719C14.2953 42.6344 13.7703 42.5359 13.2563 42.0547C12.8844 41.7156 12.8516 41.6391 12.8516 41.0922C12.8516 40.5344 12.9063 40.4141 13.6719 39.2656C14.3281 38.2812 14.5797 37.9969 14.9297 37.8219C15.4219 37.5922 15.9469 37.625 16.3625 37.8984ZM21.4266 39.025C21.6344 39.1344 21.8969 39.3969 22.0063 39.6047C22.3453 40.2172 22.225 40.7203 21.4375 41.9016C21.0656 42.4703 20.6281 43.0609 20.475 43.2359C19.6766 44.0891 18.2547 43.6516 18.0031 42.4703C17.9047 42.0219 18.1453 41.475 18.9875 40.25C19.9391 38.8719 20.5625 38.5656 21.4266 39.025ZM25.8344 40.6984C26.1188 40.8516 26.3703 41.4531 26.2828 41.7922C26.1844 42.1641 24.9813 43.9359 24.7297 44.0781C24.325 44.2859 23.8438 44.2094 23.5047 43.8703C23.0125 43.3672 23.0672 43.0062 23.8656 41.8141C24.2266 41.2453 24.6094 40.7422 24.7078 40.6875C24.9484 40.5453 25.5609 40.5562 25.8344 40.6984Z" fill="#4B61D6"/>
<path d="M10.6641 14.5687C10.325 14.7437 10.1719 14.9953 10.1719 15.3344C10.1719 15.7609 10.6094 16.1875 11.0469 16.1875C11.4406 16.1875 11.9219 15.7719 11.9219 15.4328C11.9219 15.0719 11.6922 14.6891 11.4078 14.5578C11.0797 14.4047 10.9484 14.4156 10.6641 14.5687Z" fill="#4B61D6"/>
<path d="M44.3516 14.6016C43.7937 15.1484 44.1656 16.0891 44.9422 16.0781C45.7516 16.0672 46.0688 15.0609 45.4234 14.5469C45.0516 14.2516 44.6688 14.2734 44.3516 14.6016Z" fill="#4B61D6"/>
</svg>
