<svg width="17" height="13" viewBox="0 0 17 13" fill="none" xmlns="http://www.w3.org/2000/svg">
<path d="M15.9853 0.421475C15.9197 0.466592 13.4998 2.86601 10.6123 5.75761C7.72479 8.64921 5.34589 11.0117 5.32128 11.0117C5.29667 11.0117 4.3205 10.0519 3.15155 8.883C0.809558 6.54101 0.879285 6.59843 0.506043 6.70917C0.292761 6.77069 0.0671754 7.01679 0.0261597 7.21776C-0.0394653 7.5787 -0.0927856 7.52128 2.5035 10.1176C3.82831 11.4465 4.96854 12.558 5.03827 12.5908C5.20233 12.6687 5.47714 12.6687 5.62069 12.5949C5.68222 12.5621 8.2539 10.0109 11.3383 6.92245C16.9328 1.32382 16.9451 1.31151 16.9697 1.11874C16.9943 0.95878 16.982 0.889053 16.9041 0.729092C16.7728 0.466592 16.6334 0.376358 16.3463 0.359951C16.1617 0.347647 16.0797 0.359951 15.9853 0.421475Z" fill="black"/>
</svg>
