<svg width="26" height="25" viewBox="0 0 26 25" fill="none" xmlns="http://www.w3.org/2000/svg">
<path d="M24.0703 0.996072C23.7344 1.01169 23.418 1.10935 23.1367 1.21872H23.1328C22.8477 1.332 21.4922 1.90232 19.4336 2.7656C17.375 3.63279 14.7031 4.75779 12.0508 5.87497C6.75392 8.10548 1.54689 10.3008 1.54689 10.3008L1.60939 10.2773C1.60939 10.2773 1.25002 10.3945 0.87502 10.6523C0.68361 10.7773 0.47267 10.9492 0.28908 11.2187C0.10549 11.4883 -0.0429502 11.9023 0.0117398 12.3281C0.10158 13.0508 0.57033 13.4844 0.90627 13.7226C1.24611 13.9648 1.57033 14.0781 1.57033 14.0781H1.57814L6.46095 15.7226C6.6797 16.4258 7.94924 20.5976 8.2539 21.5586C8.4336 22.1328 8.6094 22.4922 8.8281 22.7656C8.9336 22.9062 9.0586 23.0234 9.207 23.1172C9.2656 23.1523 9.3281 23.1797 9.3906 23.2031C9.4102 23.2148 9.4297 23.2187 9.4531 23.2226L9.4024 23.2109C9.418 23.2148 9.4297 23.2266 9.4414 23.2305C9.4805 23.2422 9.5078 23.2461 9.5586 23.2539C10.332 23.4883 10.9531 23.0078 10.9531 23.0078L10.9883 22.9805L13.8711 20.3555L18.7031 24.0625L18.8125 24.1094C19.8203 24.5508 20.8399 24.3047 21.3789 23.8711C21.9219 23.4336 22.1328 22.875 22.1328 22.875L22.168 22.7851L25.9024 3.65622C26.0078 3.18357 26.0352 2.74216 25.918 2.31247C25.8008 1.88279 25.5 1.48044 25.1367 1.2656C24.7695 1.04685 24.4063 0.980442 24.0703 0.996072ZM23.9688 3.04685C23.9649 3.10935 23.9766 3.10154 23.9492 3.22263V3.23435L20.25 22.1641C20.2344 22.1914 20.207 22.25 20.1328 22.3086C20.0547 22.3711 19.9922 22.4101 19.668 22.2812L13.7578 17.75L10.1875 21.0039L10.9375 16.2148C10.9375 16.2148 20.1953 7.58588 20.5938 7.21478C20.9922 6.84372 20.8594 6.7656 20.8594 6.7656C20.8867 6.31247 20.2578 6.63279 20.2578 6.63279L8.082 14.1758L8.0781 14.1562L2.2422 12.1914V12.1875C2.2383 12.1875 2.23049 12.1836 2.22658 12.1836C2.23049 12.1836 2.25783 12.1719 2.25783 12.1719L2.28908 12.1562L2.32033 12.1445C2.32033 12.1445 7.53127 9.94918 12.8281 7.71868C15.4805 6.60154 18.1524 5.47654 20.207 4.60935C22.2617 3.74607 23.7813 3.11325 23.8672 3.0781C23.9492 3.04685 23.9102 3.04685 23.9688 3.04685Z" fill="white"/>
</svg>
