<svg width="32" height="32" viewBox="0 0 32 32" fill="none" xmlns="http://www.w3.org/2000/svg">
<path d="M0.505054 7.08764C0.404934 7.13144 0.248496 7.25033 0.160891 7.3442C-0.571239 8.13891 1.28099 12.8883 3.97798 17.1247C5.3296 19.2398 6.39338 20.6102 7.5823 21.7678C9.22803 23.3635 10.9488 24.4523 12.8324 25.078C14.0275 25.4785 14.6783 25.5912 15.9611 25.6287C17.5192 25.6725 18.1763 25.5286 18.5204 25.0655C18.6456 24.8966 18.6519 24.7965 18.6831 22.7815C18.7144 20.9919 18.7332 20.6352 18.8208 20.4349C18.9522 20.1408 19.1525 20.0595 19.6906 20.0908C20.7168 20.1471 22.1623 21.2359 24.4713 23.7014C25.1472 24.4273 25.8355 25.1156 26.0044 25.2407C26.5614 25.6475 26.6052 25.6537 29.1082 25.635C31.3171 25.6162 31.3609 25.6162 31.5799 25.4723C32.1055 25.1469 32.1368 24.6025 31.68 23.6889C31.1419 22.6251 29.9592 21.1858 27.744 18.9144C27.0307 18.1885 26.4112 17.5064 26.3549 17.4C26.2985 17.2937 26.2547 17.0809 26.2547 16.9245C26.2547 16.6679 26.3111 16.5553 26.7616 15.9045C29.6901 11.6306 30.9604 9.47802 31.2607 8.27657C31.4297 7.60076 31.3609 7.35046 30.9479 7.1377C30.6788 7.00003 30.6287 7.00003 28.52 7.00003C27.062 7.00003 26.286 7.02506 26.1233 7.07512C25.7354 7.18776 25.4162 7.50689 25.1847 8.01376C24.0396 10.5105 22.7756 12.6631 21.5553 14.1962C21.0297 14.8657 20.1537 15.7105 19.8157 15.8857C19.2713 16.161 18.8896 16.0109 18.752 15.479C18.7082 15.2975 18.6831 13.9709 18.6831 11.4616C18.6831 7.91989 18.6769 7.70714 18.5642 7.45683C18.3452 6.98752 18.4516 7.00003 14.9787 7.00003C11.9939 7.00003 11.8875 7.00629 11.6872 7.12518C11.4369 7.28162 11.2742 7.63205 11.3243 7.91363C11.3493 8.02627 11.5371 8.33915 11.7436 8.60822C12.2191 9.22146 12.4006 9.57814 12.557 10.1788C12.6697 10.6106 12.6759 10.8859 12.6759 13.7519C12.6759 15.698 12.6509 16.9432 12.6133 17.0872C12.3818 17.9069 11.4745 17.5314 10.3732 16.1673C8.94019 14.3902 7.56979 11.787 6.23068 8.27657C5.98664 7.62579 5.73008 7.27536 5.39843 7.11893C5.15439 7.01255 4.96666 7.00003 2.9142 7.00629C1.19964 7.00629 0.648977 7.02506 0.505054 7.08764Z" fill="white"/>
</svg>
