<svg width="28" height="28" viewBox="0 0 28 28" fill="none" xmlns="http://www.w3.org/2000/svg">
<path d="M7.67064 22.6588L8.636 23.2228C10.2639 24.1722 12.1154 24.6706 14 24.6668C16.1096 24.6668 18.1719 24.0412 19.9261 22.8691C21.6802 21.697 23.0474 20.0311 23.8547 18.0821C24.662 16.133 24.8733 13.9883 24.4617 11.9191C24.0501 9.84998 23.0342 7.94937 21.5425 6.45761C20.0507 4.96585 18.1501 3.94995 16.0809 3.53838C14.0118 3.1268 11.8671 3.33804 9.918 4.14537C7.96894 4.95271 6.30304 6.31988 5.13097 8.07398C3.9589 9.82808 3.33331 11.8904 3.33331 14.0001C3.33331 15.9148 3.83598 17.7508 4.77864 19.3654L5.34131 20.3308L4.47064 23.5321L7.67064 22.6588ZM0.67198 27.3334L2.47464 20.7094C1.28683 18.6732 0.66277 16.3574 0.66664 14.0001C0.66664 6.63609 6.63598 0.666748 14 0.666748C21.364 0.666748 27.3333 6.63609 27.3333 14.0001C27.3333 21.3641 21.364 27.3334 14 27.3334C11.6437 27.3372 9.3289 26.7137 7.29331 25.5268L0.67198 27.3334ZM9.188 7.74409C9.3666 7.73075 9.5466 7.73075 9.7253 7.73875C9.7973 7.74409 9.8693 7.75209 9.9413 7.76009C10.1533 7.78409 10.3866 7.91342 10.4653 8.09208C10.8626 8.99338 11.2493 9.90138 11.6226 10.8121C11.7053 11.0148 11.656 11.2748 11.4986 11.5281C11.3904 11.6994 11.2734 11.865 11.148 12.0241C10.9973 12.2174 10.6733 12.5721 10.6733 12.5721C10.6733 12.5721 10.5413 12.7294 10.592 12.9254C10.6106 13.0001 10.672 13.1081 10.728 13.1988L10.8066 13.3254C11.148 13.8948 11.6066 14.4721 12.1666 15.0161C12.3266 15.1708 12.4826 15.3294 12.6506 15.4774C13.2746 16.0281 13.9813 16.4774 14.744 16.8108L14.7506 16.8134C14.864 16.8628 14.9213 16.8894 15.0866 16.9601C15.1693 16.9948 15.2546 17.0254 15.3413 17.0481C15.4309 17.0709 15.5252 17.0666 15.6123 17.0358C15.6994 17.0049 15.7754 16.9489 15.8306 16.8748C16.796 15.7054 16.884 15.6294 16.892 15.6294V15.6321C16.959 15.5696 17.0387 15.5221 17.1256 15.4929C17.2126 15.4637 17.3048 15.4534 17.396 15.4628C17.476 15.4681 17.5573 15.4828 17.632 15.5161C18.34 15.8401 19.4986 16.3454 19.4986 16.3454L20.2746 16.6934C20.4053 16.7561 20.524 16.9041 20.528 17.0468C20.5333 17.1361 20.5413 17.2801 20.5106 17.5441C20.468 17.8894 20.364 18.3041 20.26 18.5214C20.1888 18.6698 20.0942 18.8057 19.98 18.9241C19.8454 19.0654 19.6981 19.1939 19.54 19.3081C19.4853 19.3493 19.4297 19.3893 19.3733 19.4281C19.2075 19.5333 19.0371 19.6312 18.8626 19.7214C18.5194 19.9038 18.1402 20.0085 17.752 20.0281C17.5053 20.0414 17.2586 20.0601 17.0106 20.0468C17 20.0468 16.2533 19.9308 16.2533 19.9308C14.3576 19.4322 12.6045 18.4981 11.1333 17.2028C10.832 16.9374 10.5533 16.6521 10.268 16.3681C9.0813 15.1881 8.1853 13.9148 7.64131 12.7121C7.36287 12.1218 7.21247 11.4793 7.19998 10.8268C7.19448 10.0172 7.45911 9.22898 7.95198 8.58678C8.0493 8.46138 8.1413 8.33078 8.3 8.18008C8.4693 8.02008 8.576 7.93475 8.692 7.87609C8.8462 7.79879 9.0145 7.75344 9.1866 7.74275L9.188 7.74409Z" fill="white"/>
</svg>
